<?xml version="1.0" encoding="UTF-8"?>
<svg xmlns="http://www.w3.org/2000/svg" xmlns:xlink="http://www.w3.org/1999/xlink" viewBox="0 0 500 500" width="500px" height="500px">
<g id="surface14107326">
<path style=" stroke:none;fill-rule:nonzero;fill:rgb(80.000001%,80.000001%,80.000001%);fill-opacity:1;" d="M 243.710938 25.625 C 227.957031 25.6875 212.074219 27.632812 196.699219 31.308594 C 155.398438 41.007812 117.410156 64.003906 88.808594 95.605469 C 60.007812 127.105469 40.402344 167.09375 33.300781 209.492188 C 26.300781 251.792969 30.199219 296.300781 46.699219 336.699219 C 54.097656 355.300781 67.800781 374 80 390 L 80 340 C 80 340 71.300781 331.910156 69.101562 327.109375 C 52.800781 291.808594 46.390625 251.503906 51.992188 212.402344 C 57.292969 173.300781 74.101562 135.707031 100 105.605469 C 125.898438 75.40625 160.894531 52.992188 199.394531 41.992188 C 209.09375 39.292969 219.007812 37.296875 228.90625 35.996094 C 238.90625 34.894531 248.898438 34.105469 259.199219 34.003906 C 279.5 34.003906 299.898438 35 320 40 C 301.199219 31.300781 280.09375 27.390625 259.394531 26.191406 C 254.195312 25.792969 248.960938 25.605469 243.710938 25.625 Z M 268.066406 50 C 251.6875 50.160156 234.609375 52.53125 217.519531 57.011719 C 169.488281 69.53125 131.304688 100.65625 120.175781 143.476562 C 119.1875 147.417969 122.65625 151.035156 126.425781 149.726562 C 168.484375 135.996094 308.015625 92.164062 355.15625 90.742188 C 359.535156 90.640625 361.625 85.296875 358.535156 82.167969 C 336.726562 60.015625 304.097656 49.652344 268.066406 50 Z M 273.886719 56.152344 C 277.703125 56.164062 281.523438 56.300781 285.351562 56.601562 C 293.011719 57.210938 300.65625 58.238281 308.417969 60.859375 C 312.199219 62.070312 316.089844 63.785156 319.667969 66.40625 C 321.457031 67.714844 323.234375 69.230469 324.824219 71.152344 C 325.625 71.960938 326.21875 73.167969 326.71875 74.277344 C 327.308594 75.796875 327.808594 78.035156 327.207031 80.253906 C 325.71875 84.902344 322.4375 85.917969 320.449219 86.71875 C 318.160156 87.429688 316.0625 87.714844 314.082031 87.714844 C 310.003906 87.914062 306.136719 87.527344 302.265625 86.816406 C 305.945312 85.707031 309.609375 84.292969 312.890625 82.773438 C 317.171875 81.761719 317.1875 71.65625 305.546875 67.714844 C 291.828125 63.175781 277.402344 58.125 262.480469 56.503906 C 266.261719 56.253906 270.070312 56.140625 273.886719 56.152344 Z M 182.910156 76.699219 C 174.46875 83.578125 167.101562 91.570312 161.230469 100.449219 C 158.25 104.890625 155.570312 109.523438 153.378906 114.375 C 151.089844 119.023438 149.101562 124.1875 147.8125 128.828125 L 147.8125 129.023438 C 147.113281 131.652344 144.332031 133.269531 141.640625 132.558594 C 139.050781 131.847656 137.464844 129.015625 138.164062 126.386719 C 138.265625 126.085938 138.355469 125.785156 138.457031 125.585938 C 140.847656 119.925781 143.734375 115.277344 146.914062 110.527344 C 150.09375 105.878906 153.5625 101.445312 157.34375 97.304688 C 164.804688 89.125 173.558594 82.148438 182.910156 76.699219 Z M 397.34375 102.792969 C 395.101562 102.855469 393.632812 103.105469 393.632812 103.105469 C 379.492188 105.503906 370 107.304688 370 107.304688 L 370 179.707031 L 381.015625 177.597656 C 385.476562 176.699219 388.789062 172.59375 388.789062 167.792969 L 388.789062 150.097656 L 405.195312 169.902344 C 407.09375 172.203125 409.742188 173.398438 412.402344 173.398438 C 414.773438 173.398438 417.15625 172.503906 418.964844 170.605469 C 422.664062 166.90625 422.941406 160.699219 419.53125 156.699219 L 407.207031 141.894531 C 407.207031 141.894531 420.289062 134.304688 418.867188 118.105469 C 417.660156 104.003906 404.066406 102.605469 397.34375 102.792969 Z M 359.316406 108.242188 L 320 116.855469 L 320 190.097656 L 352.890625 181.953125 C 357.050781 180.921875 360 176.878906 360 172.207031 L 360 163.945312 L 338.203125 169.042969 L 338.203125 154.84375 L 350.449219 152.109375 C 354.878906 151.121094 357.964844 146.726562 357.714844 141.777344 L 357.402344 135.371094 L 338.046875 139.980469 L 338.046875 128.984375 L 352.148438 125.605469 C 356.339844 124.59375 359.316406 120.539062 359.316406 115.839844 Z M 394.0625 118.417969 C 396.886719 118.71875 399.707031 120.09375 399.707031 124.394531 C 399.707031 134.792969 388.417969 138.496094 388.417969 138.496094 L 388.417969 118.90625 C 388.417969 118.90625 391.238281 118.117188 394.0625 118.417969 Z M 296.835938 122.167969 C 286.664062 122.167969 262.984375 127.738281 260.195312 163.847656 C 257.773438 195.109375 277.933594 201.605469 288.261719 200.644531 C 291.601562 200.335938 295.402344 199.449219 299.023438 198.398438 C 307.472656 195.929688 313.398438 187.101562 313.398438 176.972656 L 313.398438 149.375 L 287.539062 156.074219 L 287.480469 165.390625 C 287.480469 169.0625 290.558594 170.972656 293.398438 170.332031 C 295.296875 169.902344 297.128906 169.492188 297.128906 169.492188 L 297.128906 178.261719 C 297.128906 178.261719 295.746094 182.871094 289.765625 182.871094 C 283.785156 182.871094 278.613281 178.207031 278.613281 165.058594 C 278.613281 151.910156 286.925781 141.191406 295.234375 141.191406 C 303.542969 141.191406 313.046875 144.015625 313.046875 133.984375 C 313.046875 123.953125 307.007812 122.167969 296.835938 122.167969 Z M 232.558594 140.742188 C 228.285156 140.714844 224.335938 141.585938 222.402344 142.109375 C 217.332031 143.507812 200 149.609375 200 149.609375 L 200 225 L 212.539062 220.292969 C 216.140625 218.894531 218.621094 215.292969 218.710938 211.09375 L 219.277344 190.605469 L 235.3125 208.398438 C 239.371094 212.796875 245.925781 212.609375 249.707031 208.007812 C 251.367188 206.007812 252.207031 203.402344 252.207031 200.800781 C 252.207031 198 251.191406 195.207031 249.160156 193.105469 L 237.34375 181.191406 C 237.34375 181.191406 251.28125 171.203125 249.0625 154.003906 C 247.738281 143.316406 239.679688 140.789062 232.558594 140.742188 Z M 180.273438 154.863281 C 179.546875 154.914062 178.820312 155.054688 178.085938 155.3125 L 171.660156 157.558594 L 172.070312 213.164062 C 172.101562 216.894531 169.660156 220.101562 166.289062 220.722656 L 166.230469 220.722656 C 161.941406 221.511719 158.042969 217.835938 158.144531 213.066406 L 158.90625 175.976562 C 158.90625 169.066406 152.660156 164.222656 146.71875 166.542969 L 140.019531 169.140625 L 140.019531 219.6875 C 140.019531 219.6875 138.792969 244.992188 164.433594 238.613281 C 190.074219 232.234375 189.792969 211.003906 189.941406 199.042969 C 190.03125 191.902344 190.011719 176.273438 189.980469 164.804688 C 189.964844 158.890625 185.359375 154.496094 180.273438 154.863281 Z M 223.808594 156.796875 C 227.898438 156.402344 229.640625 158.421875 229.707031 162.695312 C 229.605469 173.894531 218.90625 178.90625 218.90625 178.90625 L 218.90625 158.007812 C 220.820312 157.332031 222.445312 156.929688 223.808594 156.796875 Z M 112.675781 178.808594 C 109.019531 178.765625 105.445312 179.609375 102.988281 180.507812 L 80 190 L 80 270 C 80 270 131.710938 255.992188 129.960938 228.59375 C 128.941406 214.492188 117.578125 213.90625 117.578125 213.90625 C 117.578125 213.90625 129.40625 204.199219 126.816406 190 C 125.085938 181.375 118.765625 178.878906 112.675781 178.808594 Z M 407.207031 180 C 405.070312 180.011719 403.730469 180.136719 403.730469 180.136719 C 380.121094 180.136719 342.898438 197.519531 340.878906 235.78125 C 338.488281 281.203125 359.058594 295.753906 390.546875 293.515625 C 422.035156 291.277344 436.523438 272.636719 436.523438 258.886719 L 436.523438 218.75 L 389.84375 229.375 L 389.84375 240.058594 C 389.84375 246.449219 395.742188 251.203125 401.972656 249.84375 L 406.757812 248.808594 L 406.835938 258.652344 C 406.835938 258.652344 404.902344 264.394531 392.03125 265.292969 C 379.160156 266.183594 371.835938 254.171875 373.007812 238.28125 C 378.007812 200.332031 411.507812 209.179688 421.71875 210.351562 C 431.929688 211.53125 443.101562 197.765625 434.0625 188.066406 C 427.28125 180.792969 413.617188 179.960938 407.207031 180 Z M 102.949219 195.546875 C 105.453125 195.421875 108.039062 196.402344 108.359375 200.800781 C 109.097656 211.300781 98.007812 214.199219 98.007812 214.199219 L 98.007812 196.894531 C 98.007812 196.894531 100.445312 195.671875 102.949219 195.546875 Z M 330 197.402344 L 315.039062 201.71875 C 306.800781 204.097656 301.09375 212.003906 301.09375 221.015625 L 301.09375 256.601562 L 275.292969 224.101562 C 270.503906 218.070312 262.804688 215.566406 255.625 217.695312 L 240 222.34375 L 240 333.320312 L 256.132812 327.8125 C 263.941406 325.132812 269.238281 317.460938 269.238281 308.789062 L 269.238281 267.011719 L 301.367188 306.289062 C 303.796875 309.257812 307.316406 310.957031 311.035156 310.957031 L 311.054688 310.957031 C 321.515625 310.957031 330 302.007812 330 290.957031 Z M 103.769531 224.980469 C 106.691406 224.832031 109.699219 225.902344 110.019531 230.800781 C 110.941406 242.699219 98.007812 245.996094 98.007812 245.996094 L 98.007812 226.503906 C 98.007812 226.503906 100.847656 225.128906 103.769531 224.980469 Z M 230 225 L 211.464844 232.558594 C 204.59375 235.359375 200 242.933594 200 251.445312 L 200 348.945312 L 218.496094 341.464844 C 225.386719 338.683594 230 331.089844 230 322.558594 Z M 172.03125 245.117188 C 166.652344 244.976562 161.414062 247.730469 158.535156 252.597656 L 130.097656 300.742188 L 130.097656 261.601562 L 96.386719 275.957031 L 96.386719 386.074219 L 117.382812 377.441406 C 124.882812 374.363281 129.785156 367.054688 129.785156 358.945312 L 129.785156 325.214844 L 157.382812 353.90625 C 164.253906 361.046875 175.65625 361.160156 182.65625 354.160156 L 182.675781 354.121094 C 189.554688 347.242188 189.601562 336.128906 182.773438 329.199219 L 160.195312 306.289062 L 184.453125 268.574219 C 189.59375 260.574219 186.222656 249.878906 177.421875 246.289062 L 177.363281 246.25 C 175.617188 245.539062 173.824219 245.164062 172.03125 245.117188 Z M 396.40625 310.351562 C 395.570312 310.15625 394.644531 310.164062 393.710938 310.449219 C 340.640625 326.6875 214.269531 366.800781 172.890625 379.179688 C 168.78125 380.417969 166.832031 384.882812 169.980469 387.871094 C 202.402344 418.601562 256.058594 423.488281 308.847656 406.816406 C 355.207031 392.246094 391.136719 359.585938 400.117188 316.425781 C 400.71875 313.449219 398.917969 310.941406 396.40625 310.351562 Z M 420 320 C 407.5 354.199219 385.792969 382.800781 356.191406 405 C 326.589844 427.300781 290.003906 440.300781 252.402344 441.601562 C 214.800781 443.300781 150 420 120 400 L 90 410 C 100.300781 420.898438 115.199219 429.601562 127.5 438.203125 C 163.699219 463.601562 207.992188 477.902344 252.890625 478.203125 C 297.691406 478.902344 343 465.199219 380.800781 440.097656 C 418.699219 414.996094 451.699219 382.199219 470 340 Z M 377.65625 328.183594 C 378.289062 328.0625 378.964844 328.074219 379.628906 328.222656 C 382.1875 328.8125 383.851562 331.570312 383.28125 334.21875 C 383.203125 334.527344 383.117188 334.828125 383.027344 335.039062 C 380.949219 340.777344 378.347656 345.519531 375.449219 350.390625 C 372.550781 355.160156 369.320312 359.753906 365.820312 364.042969 C 358.898438 372.523438 350.667969 379.84375 341.777344 385.683594 C 349.726562 378.472656 356.554688 370.195312 361.894531 361.074219 C 364.613281 356.515625 367.035156 351.777344 368.964844 346.855469 C 370.996094 342.125 372.710938 336.898438 373.769531 332.207031 L 373.75 332.011719 C 374.171875 330.023438 375.761719 328.546875 377.65625 328.183594 Z M 377.65625 328.183594 "/>
</g>
</svg>
