<?xml version="1.0" encoding="UTF-8"?>
<svg xmlns="http://www.w3.org/2000/svg" xmlns:xlink="http://www.w3.org/1999/xlink" viewBox="0 0 480 480" width="480px" height="480px">
<g id="surface14110442">
<path style=" stroke:none;fill-rule:nonzero;fill:rgb(80.000001%,80.000001%,80.000001%);fill-opacity:1;" d="M 440 240 C 440 350.457031 350.457031 440 240 440 C 129.542969 440 40 350.457031 40 240 C 40 129.542969 129.542969 40 240 40 C 350.457031 40 440 129.542969 440 240 Z M 440 240 "/>
<path style=" stroke:none;fill-rule:nonzero;fill:rgb(100%,100%,100%);fill-opacity:1;" d="M 240 80 C 182.941406 80 151.429688 97.859375 128.128906 115.328125 C 102.53125 134.53125 82.921875 167.269531 82.101562 168.660156 L 96.949219 177.488281 C 87.519531 195.410156 80 219.261719 80 246.25 C 80 269.328125 85.171875 290.988281 94.269531 310.460938 C 94.480469 311.050781 94.589844 311.648438 94.808594 312.238281 L 95.101562 312.128906 C 120.351562 364.449219 174.988281 400 240 400 C 329.71875 400 400 329.71875 400 240 C 400 151.78125 328.21875 80 240 80 Z M 119.839844 280.261719 C 119.839844 282.710938 120.070312 284.949219 120.179688 287.289062 L 118.738281 287.789062 C 111.050781 255.828125 116.148438 223.5 133.269531 199.058594 C 145.761719 181.238281 170.058594 160 215 160 C 264.390625 160 290.820312 194.398438 297.941406 225.820312 L 296.589844 226.289062 C 279.671875 197.769531 251.511719 180 217.5 180 C 160 180 119.839844 221.230469 119.839844 280.261719 Z M 274.238281 290.511719 C 264.710938 304.699219 248.488281 310 235 310 C 209.351562 310 190 292.800781 190 270 C 190 246.070312 206.578125 230 231.25 230 C 245.128906 230 256.839844 235.140625 264.210938 244.460938 C 268.121094 249.410156 275.53125 265.78125 263.101562 281.929688 Z M 240 370 C 195.199219 370 149.839844 339.179688 149.839844 280.261719 C 149.839844 256.699219 159.378906 233.039062 179.871094 220.078125 C 167.398438 232.488281 160 249.871094 160 270 C 160 309.25 192.941406 340 235 340 C 290.929688 340 330 300.078125 330 242.910156 C 330 187.410156 286.980469 130 215 130 C 178.570312 130 147.109375 142.179688 123.949219 164.390625 L 122.589844 163.140625 C 129.109375 154.960938 137.308594 145.960938 146.128906 139.339844 C 166.449219 124.101562 191.878906 110 240 110 C 311.679688 110 370 168.320312 370 240 C 370 314.109375 314.109375 370 240 370 Z M 240 370 "/>
</g>
</svg>
