<?xml version="1.0" encoding="UTF-8"?>
<svg xmlns="http://www.w3.org/2000/svg" xmlns:xlink="http://www.w3.org/1999/xlink" viewBox="0 0 480 480" width="480px" height="480px">
<g id="surface14378029">
<path style=" stroke:none;fill-rule:nonzero;fill:rgb(80.000001%,80.000001%,80.000001%);fill-opacity:1;" d="M 227.5 213.570312 L 241.941406 213.570312 L 250.101562 200 L 235.648438 200 Z M 147.5 290 C 135.21875 290 119.929688 291.300781 102.5 296.25 C 76.238281 303.710938 60 310.128906 46.25 310.128906 C 40 310.128906 35.050781 308.160156 29.308594 304.121094 C 22.5 298.75 19.609375 288.179688 20 276.25 C 20.070312 273.96875 20.261719 271.648438 20.558594 269.308594 C 24.910156 245.480469 37.78125 222.550781 58.671875 197.121094 C 70.328125 183.890625 81.148438 172.53125 95.441406 167.980469 C 106.390625 165.121094 105.121094 171.921875 103.800781 173.179688 C 96.25 173.179688 92.71875 179.53125 92.5 184.578125 C 92.351562 188.390625 94.191406 190 96.511719 190 C 103.75 190 110 180 110 172.5 C 110 170 110 160 97.5 160 C 85.289062 160 73.890625 166.058594 63.308594 172.671875 C 38.730469 190.058594 19.058594 214.148438 7.929688 240.53125 C 1.511719 256.441406 -4.289062 279.238281 4.410156 297.789062 C 10.550781 309.539062 22.5 320 40 320 C 58.75 320 69.238281 314.820312 78.75 312.5 C 88.261719 310.171875 134.011719 290.359375 150 320 C 150 320 156.25 310 172.5 310 C 181.25 310 198.519531 311.421875 210 320 C 206.179688 314.148438 187.5 290 147.5 290 Z M 300 255.019531 C 300 242.210938 293.738281 240.039062 289.519531 240.039062 C 278.109375 240.039062 266.269531 250.558594 260.109375 265.351562 C 256.871094 272.949219 255 281.289062 253.75 290.039062 C 257.480469 285.550781 265.300781 277.351562 273.941406 273.320312 C 273.941406 273.320312 274.609375 266.5 280.609375 257.980469 C 282.621094 254.851562 286.429688 250.019531 290.828125 250.039062 C 291.390625 250.039062 291.949219 250.121094 292.519531 250.289062 C 294.359375 250.929688 295.261719 253.351562 295.261719 256.851562 C 295.261719 261.808594 293.460938 267.121094 289.988281 274.421875 C 285.609375 283.578125 277.050781 292.761719 270.269531 299.078125 C 265.808594 303.03125 259.761719 307.628906 253.761719 307.628906 C 242.5 307.621094 240 298.75 240 287.5 C 240 271.25 253.199219 245.53125 267.628906 223.089844 C 278.289062 208.160156 289.101562 192.949219 302.5 181.328125 C 307.800781 176.730469 318.75 167.191406 327.5 167.191406 C 329.019531 167.191406 330.460938 167.429688 331.828125 167.949219 C 322.089844 174.058594 300 190.101562 300 210 C 300 217.558594 305.898438 220 308.75 220 C 321.191406 220 340 202.050781 340 175 L 340 170.769531 C 340 170.769531 341.25 170.039062 345 170.039062 C 351.25 170.039062 358.828125 173.179688 358.828125 173.179688 C 366.820312 175.941406 381.949219 186 390.269531 190.679688 C 394.109375 186.199219 398.019531 181.859375 402.039062 177.75 C 396.558594 174.828125 386.859375 169.679688 380 166.25 C 371.199219 161.851562 362.660156 160.03125 356.25 160.03125 C 343.75 160.03125 337.078125 165.058594 337.078125 165.058594 C 334.191406 161.769531 330.238281 160.03125 326.25 160.03125 C 315 160.03125 305.789062 165.671875 300 168.890625 C 284.398438 177.570312 270.460938 191.621094 254.480469 211.960938 C 238.371094 233.808594 228.371094 252.671875 223.050781 271.308594 C 221.21875 276.898438 219.960938 283.671875 220.011719 290.421875 C 220.070312 298.820312 222.171875 307.191406 227.71875 313.261719 C 232.179688 318.128906 237.398438 319.890625 242.511719 319.988281 C 247.160156 320.078125 251.71875 318.789062 255.519531 317.199219 C 272.808594 308.320312 290.199219 289.148438 297.941406 267.128906 C 298.96875 263.46875 300 259.25 300 255.019531 Z M 335 175 C 335 199.421875 317.761719 215 308.761719 215 C 308.71875 215 305 214.71875 305 210 C 305 192.460938 326.261719 177.351562 335 171.878906 Z M 457.550781 175.609375 C 450.71875 179.660156 443.660156 182.609375 436.039062 184.070312 C 432.480469 187.199219 429.609375 189.898438 429.558594 189.949219 C 426.980469 192.648438 424.121094 196.050781 421.101562 199.941406 C 436.96875 199.671875 452.371094 190.488281 461.71875 181.621094 C 473.800781 170.660156 480 160 480 160 C 480 160 470.941406 167.679688 457.550781 175.609375 Z M 457.550781 175.609375 "/>
<path style=" stroke:none;fill-rule:nonzero;fill:rgb(80.000001%,80.000001%,80.000001%);fill-opacity:1;" d="M 423.46875 291.25 C 426.039062 286.539062 450 240 450 240 L 434.640625 240 C 434.511719 240.21875 433.210938 242.679688 432 244.988281 C 432 244.988281 430.699219 240.011719 424.03125 240.011719 C 421.121094 240.011719 418 240.898438 415.578125 242.328125 C 399.070312 252.410156 387.988281 271.441406 378.480469 286.960938 C 378.480469 286.960938 367.488281 305 362.488281 305 C 360 305 360 302.289062 360 300 C 360 292.5 364.800781 278.339844 368.71875 269.5 C 376.699219 263.730469 385.800781 256.171875 394.070312 247.890625 C 408.839844 233.160156 423.851562 216.949219 429.988281 209.089844 C 428.109375 209.421875 426.121094 209.519531 424.160156 209.660156 C 406.609375 229.738281 381.550781 255.351562 373.511719 259.429688 C 377.308594 249.898438 401.828125 204.429688 422.699219 182.679688 C 422.699219 182.679688 440 166.261719 443.890625 166.210938 C 444.320312 166.160156 445.671875 166.308594 445.671875 167.601562 C 445.671875 168.488281 445.511719 169.511719 445.28125 170.578125 C 446.808594 169.929688 448.359375 169.101562 449.910156 168.28125 C 449.929688 168.019531 449.988281 167.769531 450 167.511719 C 450.03125 166.421875 449.96875 165.339844 449.800781 164.28125 C 449.460938 162.171875 448 160.570312 446.089844 160.199219 C 445.441406 160.070312 444.789062 160.011719 444.128906 160 C 438.46875 159.949219 432.710938 164.171875 427.820312 167.660156 L 427.601562 167.800781 C 399.539062 190.738281 372.179688 225.628906 351.460938 270.78125 C 350.140625 271.828125 345.671875 272.960938 343.898438 272.78125 C 345.898438 268.480469 348.339844 262.871094 349.578125 256.738281 C 349.789062 254.921875 350 253.070312 350 251.261719 C 350 247.359375 349.101562 243.699219 345.730469 241.171875 C 344.101562 240.328125 342.308594 240 340.53125 240 C 338.019531 240.011719 335.539062 240.710938 333.609375 241.621094 C 318.871094 247.960938 307.859375 263.621094 299.910156 276.519531 C 295.640625 284.710938 291.371094 293.488281 290.191406 303.539062 C 290.078125 304.539062 290.019531 305.5 290 306.421875 C 289.839844 312.671875 291.609375 316.808594 295.371094 319.019531 C 299.808594 321.371094 305.398438 318.929688 307.601562 317.75 C 322.53125 309.601562 332.960938 293.261719 341.179688 278.328125 L 341.449219 277.789062 C 342.921875 277.699219 346.210938 277.46875 348.898438 276.738281 C 348.949219 276.738281 339.988281 292.511719 339.988281 306.261719 C 339.988281 310.390625 340.671875 313.738281 342.679688 316.359375 C 344.671875 318.921875 347.160156 320.039062 349.921875 320.011719 C 356.980469 319.941406 365.828125 312.53125 372.671875 303.578125 C 370.921875 316.359375 376.101562 319.96875 381.171875 320.011719 C 382.019531 320.019531 382.878906 319.871094 383.691406 319.699219 C 390.179688 317.871094 397.421875 310.628906 400.769531 306.921875 C 400.46875 308.179688 400 310.910156 400 312.5 C 400 316.25 402.5 319.980469 407.5 319.980469 C 413.75 319.980469 421.71875 313.039062 423.75 311.25 C 434.738281 301.519531 446.699219 285.808594 450 280 L 444.878906 280 C 442.5 283.75 433.121094 295.371094 426.25 301.070312 C 424.359375 302.648438 422 305 420 305 C 418.839844 305 417.890625 303.75 418.46875 301.941406 C 419.359375 299.109375 421.429688 294.980469 423.46875 291.25 Z M 309.210938 302.808594 C 308.410156 301.589844 308.148438 300.25 308.128906 298.808594 C 307.980469 289.941406 317.191406 274.039062 323.691406 265.378906 L 323.699219 265.378906 C 326.429688 271.558594 332.601562 275.539062 336.320312 277.21875 C 331.699219 287.898438 315.828125 310.78125 309.210938 302.808594 Z M 338.929688 272.441406 C 338.488281 272.761719 330.710938 270.039062 329.199219 262.570312 C 327.921875 256.140625 332.199219 251.121094 336.328125 248.578125 C 338.101562 247.128906 340.78125 246.628906 342.738281 247.359375 C 344.558594 248.628906 345.050781 250.890625 345.050781 253.328125 C 345.050781 254.828125 344.859375 256.359375 344.691406 257.769531 C 344.691406 257.769531 344.660156 258.039062 344.648438 258.089844 C 343.359375 263.121094 341.378906 268.050781 338.929688 272.441406 Z M 412.988281 281.550781 C 409.988281 286.75 406.828125 291.878906 403.339844 296.730469 C 402.609375 297.738281 400.398438 300.660156 399.269531 301.671875 C 397.679688 303.101562 395.25 304.691406 392.71875 304.121094 C 391.960938 303.949219 391.488281 302.839844 391.359375 302.058594 C 391.238281 296.429688 393.671875 291.210938 396.03125 286.121094 L 396.628906 284.789062 C 403.410156 272.96875 410.320312 259.929688 421.898438 250.269531 C 423.851562 248.800781 425.96875 247.570312 428.199219 248.53125 C 428.628906 248.949219 429.050781 249.640625 429.191406 250.359375 C 423.460938 261.390625 415.019531 277.640625 412.988281 281.550781 Z M 196.25 261.070312 C 194.359375 262.648438 192 265 190 265 C 188.839844 265 187.890625 263.75 188.46875 261.941406 C 189.359375 259.109375 191.429688 254.980469 193.46875 251.25 C 196.039062 246.539062 220 200 220 200 L 204.640625 200 C 204.511719 200.21875 203.210938 202.679688 202 204.988281 C 202 204.988281 200.699219 200.011719 194.03125 200.011719 C 191.121094 200.011719 188 200.898438 185.578125 202.328125 C 169.070312 212.410156 157.988281 231.441406 148.480469 246.960938 C 148.480469 246.960938 147.050781 249.289062 144.988281 252.269531 C 141.96875 256.441406 138.140625 260.199219 135.679688 262.511719 C 135.679688 262.511719 123.988281 273.601562 118.960938 265.429688 C 117.121094 262 117.691406 256.980469 118.71875 253.691406 C 124.578125 236.128906 133.828125 220.191406 145.308594 210.570312 C 148.550781 207.910156 152.070312 207.140625 153.820312 208.269531 C 155.488281 209.308594 155.269531 212.480469 154.21875 214.238281 C 151.550781 214.148438 149.398438 215.011719 147.660156 216.898438 C 145.140625 219.691406 143.738281 222.398438 143.738281 225 C 143.738281 229.289062 145.75 230 147.511719 230 C 152.851562 230 159.980469 218.101562 159.960938 209.851562 C 159.980469 206.25 158.039062 203.171875 155.449219 201.589844 C 153.539062 200.390625 151.140625 200.011719 148.730469 200.011719 C 143.550781 200.011719 138.390625 203.539062 136.480469 205 C 132.390625 208.121094 128.011719 212.601562 124.789062 216.351562 C 121.171875 220.558594 115.96875 225.058594 111.730469 227.730469 C 108.761719 229.621094 105.460938 230 105.460938 230 C 105.460938 230 110 221.25 110 211.25 C 110 206.25 109.058594 203.910156 106.089844 201.628906 C 97.210938 195.488281 79.359375 207.230469 65.058594 227.359375 C 51.988281 245.421875 46.339844 266.410156 52.480469 276.109375 C 61.621094 287.53125 78.589844 270.921875 85.800781 262.03125 L 86.730469 260.988281 C 91.640625 255.441406 95.429688 248.761719 99.101562 242.339844 C 99.101562 242.339844 102.46875 236.46875 102.628906 236.199219 C 104.421875 236.089844 107.121094 235.558594 110.050781 234.300781 C 110.019531 234.449219 100 251.25 100 263.75 C 100 266.660156 100.421875 276.480469 110.210938 279.679688 C 122.671875 281.878906 133.75 273.75 142.679688 263.570312 C 140.929688 276.351562 146.109375 279.960938 151.179688 280 C 152.03125 280.011719 152.890625 279.859375 153.699219 279.691406 C 160.191406 277.859375 167.429688 270.621094 170.78125 266.910156 C 170.46875 268.179688 170 270.910156 170 272.5 C 170 276.25 172.5 279.980469 177.5 279.980469 C 183.75 279.980469 191.71875 273.039062 193.75 271.25 C 204.738281 261.519531 216.699219 245.808594 220 240 L 214.878906 240 C 212.5 243.75 203.109375 255.371094 196.25 261.070312 Z M 90.289062 247.949219 C 86.410156 253.410156 81.558594 260.28125 75.488281 263.570312 C 73.691406 264.199219 71.210938 264.609375 69.941406 262.941406 C 67.261719 259.550781 68.640625 254.859375 69.761719 251.070312 L 70.160156 249.71875 C 71.601562 245.621094 73.410156 241.730469 75.410156 238.011719 C 77.910156 233.390625 82.699219 225.921875 83.71875 224.75 C 83.730469 224.800781 83.75 224.800781 83.761719 224.890625 C 86.878906 231.210938 92.738281 234.140625 97.109375 235.5 C 97.140625 235.5 97.339844 235.558594 97.339844 235.558594 C 97.351562 235.679688 90.289062 247.949219 90.289062 247.949219 Z M 100.269531 230 C 95 230 90.070312 225.921875 89.140625 222.578125 C 87.859375 216.078125 93.128906 210.980469 95.449219 209.128906 C 96.839844 208.109375 98.71875 207.410156 100.421875 207.410156 C 104.339844 207.410156 104.871094 211.558594 104.871094 214.011719 C 104.859375 220.851562 101.398438 227.988281 100.269531 230 Z M 173.339844 256.71875 C 172.609375 257.730469 170.398438 260.648438 169.269531 261.660156 C 167.679688 263.089844 165.25 264.679688 162.71875 264.109375 C 161.960938 263.941406 161.488281 262.828125 161.359375 262.050781 C 161.238281 256.421875 163.671875 251.199219 166.03125 246.109375 L 166.628906 244.78125 C 173.410156 232.960938 180.320312 219.921875 191.898438 210.261719 C 193.851562 208.789062 195.96875 207.558594 198.199219 208.519531 C 198.628906 208.941406 199.050781 209.628906 199.191406 210.351562 C 193.449219 221.371094 185.011719 237.628906 182.980469 241.53125 C 179.988281 246.75 176.828125 251.878906 173.339844 256.71875 Z M 173.339844 256.71875 "/>
</g>
</svg>
