<?xml version="1.0" encoding="UTF-8"?>
<svg xmlns="http://www.w3.org/2000/svg" xmlns:xlink="http://www.w3.org/1999/xlink" viewBox="0 0 500 500" width="500px" height="500px">
<g id="surface14412800">
<path style=" stroke:none;fill-rule:evenodd;fill:rgb(80.000001%,80.000001%,80.000001%);fill-opacity:1;" d="M 0 190 L 0 324.179688 C 6.835938 323.203125 14.140625 322.265625 20.9375 321.40625 C 20.976562 293.320312 20.976562 276.09375 21.015625 248.085938 C 30.429688 275.664062 36.210938 291.953125 45.546875 318.164062 C 52.890625 317.34375 60.976562 316.328125 68.359375 315.585938 C 68.398438 273.710938 68.476562 231.835938 68.554688 190 L 47.5 190 C 47.460938 218.632812 47.421875 237.148438 47.382812 265.78125 C 38.359375 237.851562 29.296875 219.375 20.234375 190 Z M 88.867188 190 L 88.632812 313.789062 C 108.125 312.03125 127.65625 310.546875 147.1875 309.414062 C 147.226562 303.398438 147.226562 294.726562 147.226562 288.710938 C 134.53125 289.453125 122.382812 290.273438 109.6875 291.132812 C 109.726562 280.078125 109.726562 270.859375 109.765625 259.804688 C 119.023438 259.609375 128.789062 259.765625 138.242188 259.609375 C 138.242188 253.554688 138.28125 244.84375 138.28125 238.789062 C 128.90625 238.945312 119.023438 238.984375 109.804688 239.140625 C 109.84375 228.046875 109.84375 221.953125 109.84375 210.859375 C 115.664062 210.78125 142.460938 210.78125 147.304688 210.742188 C 147.304688 204.6875 147.1875 196.015625 147.1875 190 Z M 239.414062 190 C 239.414062 228.828125 239.414062 267.695312 239.414062 306.523438 C 241.679688 306.523438 243.984375 306.523438 246.25 306.523438 C 250.9375 306.523438 255.664062 306.523438 260.273438 306.5625 C 260.273438 290.078125 260.273438 275.039062 260.273438 258.554688 C 261.40625 258.554688 286.015625 258.515625 288.789062 258.554688 C 288.789062 252.65625 288.789062 243.867188 288.75 237.96875 C 286.171875 237.929688 261.328125 237.96875 260.273438 237.96875 C 260.273438 227.34375 260.273438 221.367188 260.273438 210.78125 C 262.539062 210.78125 292.304688 210.78125 298.007812 210.78125 C 298.007812 204.882812 297.96875 195.9375 297.96875 190 Z M 311.679688 190.117188 C 311.71875 229.335938 311.523438 268.515625 311.5625 307.734375 C 330.273438 308.4375 349.960938 309.179688 368.632812 310.46875 C 368.632812 304.453125 368.632812 295.78125 368.632812 289.726562 C 356.796875 289.0625 344.492188 288.203125 332.65625 287.695312 C 332.578125 254.140625 332.773438 223.671875 332.695312 190.117188 Z M 385.9375 190.117188 L 386.171875 311.757812 C 393.046875 312.304688 400.117188 312.851562 406.992188 313.476562 C 406.992188 272.382812 407.070312 231.210938 406.992188 190.117188 Z M 425 190.117188 C 433.4375 210.625 441.132812 231.171875 449.6875 252.96875 C 440.820312 273.867188 431.757812 294.648438 422.890625 314.6875 C 430.234375 315.429688 437.851562 316.523438 445.195312 317.34375 C 450.46875 304.414062 455.234375 294.453125 460.507812 281.171875 C 465.78125 295.3125 470.585938 306.210938 475.820312 320.820312 C 483.164062 321.757812 492.695312 323.164062 500 324.21875 C 491.132812 300.46875 481.40625 275.742188 472.5 253.28125 C 481.367188 232.226562 490.429688 212.109375 499.6875 190.117188 L 476.71875 190.117188 C 471.015625 203.710938 467.070312 212.460938 461.601562 225.429688 C 456.523438 211.953125 453.125 203.203125 448.007812 190.117188 Z M 160.820312 190.117188 C 160.820312 196.09375 160.820312 204.726562 160.820312 210.742188 C 161.757812 210.703125 181.992188 210.820312 182.695312 210.820312 C 182.65625 244.101562 182.617188 274.453125 182.578125 307.734375 C 189.453125 307.460938 196.796875 307.265625 203.632812 307.109375 C 203.671875 274.023438 203.710938 243.789062 203.75 210.742188 C 211.015625 210.703125 218.515625 210.664062 225.78125 210.664062 C 225.78125 204.765625 225.78125 196.015625 225.78125 190.117188 Z M 160.820312 190.117188 "/>
</g>
</svg>
