<?xml version="1.0" encoding="UTF-8"?>
<svg xmlns="http://www.w3.org/2000/svg" xmlns:xlink="http://www.w3.org/1999/xlink" viewBox="0 0 480 480" width="480px" height="480px">
<g id="surface14415538">
<path style=" stroke:none;fill-rule:nonzero;fill:rgb(80.000001%,80.000001%,80.000001%);fill-opacity:1;" d="M 24 102 L 24 378 L 210 378 L 210 333.457031 L 221.25 341.742188 L 221.25 342 L 221.601562 342 L 221.929688 342.246094 L 222.269531 342 L 258 342 L 258 378 L 456 378 L 456 122.484375 L 420.796875 102.761719 L 420 104.191406 L 420 102 L 268.066406 102 L 241.359375 128.320312 L 176.484375 102.855469 L 175.617188 102 Z M 36 114 L 170.695312 114 L 221.800781 164.425781 L 272.988281 114 L 408 114 L 408 236.074219 L 385.523438 287.671875 C 383.753906 291.726562 377.789062 290.992188 377.074219 286.617188 L 374.25 269.25 L 370.40625 242.34375 C 368.863281 231.542969 358.203125 224.550781 347.683594 227.4375 C 337.667969 230.183594 332.015625 240.78125 335.296875 250.640625 L 342 270.75 L 367.652344 340.511719 C 373.335938 355.960938 395.292969 355.644531 400.535156 340.042969 L 408 317.824219 L 408 366 L 326.308594 366 L 327 315.75 L 324 227.25 L 362.753906 206.214844 C 370.042969 202.253906 372.214844 192.796875 367.371094 186.058594 C 362.902344 179.835938 354.203125 178.445312 348.023438 182.976562 L 314.238281 207.75 C 313.109375 204.742188 310.050781 203.082031 305.425781 202.5 L 300.597656 202.5 C 292.671875 202.5 286.113281 208.667969 285.621094 216.574219 L 285 226.5 L 243.75 251.25 L 229.300781 256.066406 C 221.40625 258.699219 217.554688 267.601562 221.039062 275.15625 C 224.667969 283.035156 234.523438 285.726562 241.652344 280.78125 L 282.667969 252.351562 C 287.394531 249.070312 293.867188 252.527344 293.765625 258.28125 L 291.902344 366 L 270 366 L 270 292.03125 L 221.929688 327.351562 L 174 292.007812 L 174 366 L 36 366 Z M 420 116.074219 L 444 129.515625 L 444 188.074219 L 420 216.785156 Z M 198.1875 124.265625 L 232.007812 137.53125 L 221.8125 147.574219 Z M 84.480469 132 C 81.179688 132 78.480469 134.699219 78.480469 138 C 78.480469 141.300781 81.179688 144 84.480469 144 C 87.839844 144 90.480469 141.300781 90.480469 138 C 90.480469 134.699219 87.839844 132 84.480469 132 Z M 109.019531 132 C 105.660156 132 103.019531 134.699219 103.019531 138 C 103.019531 141.300781 105.660156 144 109.019531 144 C 112.320312 144 115.019531 141.300781 115.019531 138 C 115.019531 134.699219 112.320312 132 109.019531 132 Z M 133.5 132 C 130.199219 132 127.5 134.699219 127.5 138 C 127.5 141.300781 130.199219 144 133.5 144 C 136.800781 144 139.5 141.300781 139.5 138 C 139.5 134.699219 136.800781 132 133.5 132 Z M 310.5 132 C 307.199219 132 304.5 134.699219 304.5 138 C 304.5 141.300781 307.199219 144 310.5 144 C 313.800781 144 316.5 141.300781 316.5 138 C 316.5 134.699219 313.800781 132 310.5 132 Z M 334.980469 132 C 331.679688 132 328.980469 134.699219 328.980469 138 C 328.980469 141.300781 331.679688 144 334.980469 144 C 338.339844 144 340.980469 141.300781 340.980469 138 C 340.980469 134.699219 338.339844 132 334.980469 132 Z M 359.519531 132 C 356.160156 132 353.519531 134.699219 353.519531 138 C 353.519531 141.300781 356.160156 144 359.519531 144 C 362.820312 144 365.519531 141.300781 365.519531 138 C 365.519531 134.699219 362.820312 132 359.519531 132 Z M 60 132.070312 C 58.441406 132.070312 56.875 132.625 55.734375 133.734375 C 54.65625 134.867188 54 136.441406 54 138 C 54 139.558594 54.65625 141.125 55.734375 142.265625 C 56.875 143.34375 58.441406 144 60 144 C 61.558594 144 63.125 143.34375 64.265625 142.265625 C 65.34375 141.125 66 139.558594 66 138 C 66 136.441406 65.34375 134.867188 64.265625 133.734375 C 63.125 132.625 61.558594 132.070312 60 132.070312 Z M 157.992188 132.070312 C 156.441406 132.070312 154.894531 132.625 153.785156 133.734375 C 152.644531 134.867188 151.980469 136.441406 151.980469 138 C 151.980469 139.558594 152.644531 141.125 153.785156 142.265625 C 154.863281 143.34375 156.421875 144 157.980469 144 C 159.539062 144 161.09375 143.34375 162.234375 142.265625 C 163.375 141.125 163.980469 139.558594 163.980469 138 C 163.980469 136.441406 163.375 134.867188 162.234375 133.734375 C 161.09375 132.625 159.542969 132.070312 157.992188 132.070312 Z M 285.984375 132.070312 C 284.425781 132.070312 282.875 132.625 281.765625 133.734375 C 280.625 134.867188 280.019531 136.441406 280.019531 138 C 280.019531 139.621094 280.625 141.125 281.765625 142.265625 C 282.90625 143.34375 284.460938 144 286.019531 144 C 287.578125 144 289.136719 143.34375 290.214844 142.265625 C 291.355469 141.125 292.019531 139.621094 292.019531 138 C 292.019531 136.441406 291.355469 134.867188 290.214844 133.734375 C 289.105469 132.625 287.542969 132.070312 285.984375 132.070312 Z M 384.023438 132.070312 C 382.457031 132.070312 380.875 132.625 379.734375 133.734375 C 378.65625 134.867188 378 136.441406 378 138 C 378 139.558594 378.65625 141.125 379.734375 142.265625 C 380.875 143.34375 382.441406 144 384 144 C 385.558594 144 387.125 143.34375 388.265625 142.265625 C 389.34375 141.125 390 139.621094 390 138 C 390 136.441406 389.34375 134.867188 388.265625 133.734375 C 387.15625 132.625 385.589844 132.070312 384.023438 132.070312 Z M 270.140625 148.839844 C 268.601562 148.902344 267.089844 149.554688 265.980469 150.785156 C 263.699219 153.183594 263.824219 157.015625 266.285156 159.234375 C 267.425781 160.3125 268.921875 160.859375 270.363281 160.851562 C 271.984375 160.851562 273.59375 160.203125 274.734375 158.941406 C 277.015625 156.542969 276.839844 152.695312 274.441406 150.410156 C 273.242188 149.304688 271.679688 148.777344 270.140625 148.839844 Z M 174.445312 148.863281 C 172.90625 148.839844 171.355469 149.398438 170.15625 150.539062 C 167.816406 152.875 167.757812 156.652344 170.039062 159 C 171.238281 160.261719 172.804688 160.863281 174.363281 160.863281 C 175.863281 160.863281 177.359375 160.265625 178.558594 159.1875 C 180.898438 156.839844 180.957031 153.054688 178.675781 150.65625 C 177.503906 149.484375 175.984375 148.886719 174.445312 148.863281 Z M 384 153 C 380.699219 153 378 155.699219 378 159 C 378 162.300781 380.699219 165 384 165 C 387.300781 165 390 162.300781 390 159 C 390 155.699219 387.300781 153 384 153 Z M 60 154.675781 C 56.699219 154.675781 54 157.371094 54 160.675781 C 54 163.976562 56.699219 166.675781 60 166.675781 C 63.300781 166.675781 66 163.976562 66 160.675781 C 66 157.371094 63.300781 154.675781 60 154.675781 Z M 190.816406 165.703125 C 189.285156 165.6875 187.738281 166.261719 186.539062 167.402344 C 184.140625 169.6875 184.082031 173.523438 186.421875 175.863281 C 187.5625 177.125 189.113281 177.71875 190.734375 177.726562 C 192.234375 177.726562 193.742188 177.113281 194.882812 175.980469 C 197.28125 173.699219 197.339844 169.925781 195 167.53125 C 193.859375 166.328125 192.347656 165.71875 190.816406 165.703125 Z M 254.484375 165.703125 C 252.945312 165.765625 251.433594 166.410156 250.324219 167.636719 C 248.042969 170.035156 248.21875 173.816406 250.617188 176.097656 C 251.757812 177.175781 253.253906 177.714844 254.695312 177.714844 C 256.316406 177.714844 257.9375 177.066406 259.078125 175.804688 L 259.136719 175.804688 C 261.355469 173.34375 261.246094 169.566406 258.785156 167.285156 C 257.585938 166.175781 256.023438 165.640625 254.484375 165.703125 Z M 384 174 C 380.699219 174 378 176.699219 378 180 C 378 183.300781 380.699219 186 384 186 C 387.300781 186 390 183.300781 390 180 C 390 176.699219 387.300781 174 384 174 Z M 60 177.363281 C 56.699219 177.363281 54 180.003906 54 183.363281 C 54 186.65625 56.699219 189.363281 60 189.363281 C 63.300781 189.363281 66 186.664062 66 183.363281 C 66 180.003906 63.300781 177.363281 60 177.363281 Z M 207.164062 182.542969 C 205.617188 182.519531 204.0625 183.09375 202.863281 184.265625 C 200.523438 186.546875 200.453125 190.367188 202.734375 192.714844 C 203.933594 193.910156 205.5 194.578125 207.058594 194.578125 C 208.558594 194.578125 210.066406 193.984375 211.265625 192.84375 C 213.605469 190.5625 213.664062 186.730469 211.382812 184.382812 C 210.242188 183.183594 208.710938 182.566406 207.164062 182.542969 Z M 238.839844 182.554688 C 237.308594 182.609375 235.796875 183.242188 234.65625 184.441406 C 232.375 186.894531 232.5625 190.679688 234.960938 192.960938 C 236.160156 194.039062 237.597656 194.585938 239.039062 194.578125 C 240.660156 194.578125 242.28125 193.917969 243.480469 192.65625 C 245.699219 190.203125 245.578125 186.417969 243.117188 184.136719 C 241.917969 183.027344 240.371094 182.5 238.839844 182.554688 Z M 384 195 C 380.699219 195 378 197.699219 378 201 C 378 204.300781 380.699219 207 384 207 C 387.300781 207 390 204.300781 390 201 C 390 197.699219 387.300781 195 384 195 Z M 223.429688 199.488281 C 221.878906 199.480469 220.316406 200.03125 219.175781 201.175781 C 218.035156 202.25 217.441406 203.8125 217.441406 205.371094 C 217.441406 206.996094 218.035156 208.558594 219.175781 209.636719 C 220.316406 210.777344 221.882812 211.371094 223.441406 211.371094 C 225 211.371094 226.558594 210.78125 227.636719 209.636719 C 228.777344 208.558594 229.441406 206.996094 229.441406 205.371094 C 229.441406 203.8125 228.777344 202.253906 227.636719 201.175781 C 226.527344 200.066406 224.980469 199.496094 223.429688 199.488281 Z M 60 199.980469 C 56.699219 199.980469 54 202.679688 54 206.039062 C 54 209.339844 56.699219 212.039062 60 212.039062 C 63.300781 212.039062 66 209.339844 66 206.039062 C 66 202.679688 63.300781 199.980469 60 199.980469 Z M 384 216.070312 C 382.425781 216.070312 380.84375 216.625 379.734375 217.734375 C 378.65625 218.867188 378 220.441406 378 222 C 378 223.558594 378.65625 225.125 379.734375 226.265625 C 380.875 227.34375 382.441406 228 384 228 C 385.558594 228 387.125 227.34375 388.265625 226.265625 C 389.34375 225.125 390 223.558594 390 222 C 390 220.441406 389.40625 218.867188 388.265625 217.734375 C 387.15625 216.625 385.574219 216.070312 384 216.070312 Z M 60 222.65625 C 56.699219 222.65625 54 225.355469 54 228.65625 C 54 231.960938 56.699219 234.65625 60 234.65625 C 63.300781 234.65625 66 231.960938 66 228.65625 C 66 225.355469 63.300781 222.65625 60 222.65625 Z M 150.023438 238.089844 C 148.457031 238.089844 146.875 238.65625 145.734375 239.765625 C 144.65625 240.898438 144 242.394531 144 244.019531 C 144 245.578125 144.65625 247.128906 145.734375 248.214844 C 146.875 249.355469 148.441406 250.019531 150 250.019531 C 151.558594 250.019531 153.125 249.355469 154.265625 248.214844 C 155.34375 247.136719 156 245.578125 156 244.019531 C 156 242.394531 155.34375 240.898438 154.265625 239.765625 C 153.15625 238.65625 151.589844 238.089844 150.023438 238.089844 Z M 444 238.21875 L 444 366 L 420 366 L 420 285.082031 L 429.75 262.5 Z M 60 245.34375 C 56.699219 245.34375 54 248.042969 54 251.34375 C 54 254.636719 56.699219 257.34375 60 257.34375 C 63.300781 257.34375 66 254.644531 66 251.34375 C 66 248.042969 63.300781 245.34375 60 245.34375 Z M 167.050781 252.035156 C 165.527344 252.222656 164.070312 252.996094 163.019531 254.285156 C 160.980469 256.863281 161.398438 260.628906 164.039062 262.734375 C 165.117188 263.574219 166.445312 264 167.765625 264 C 169.503906 264 171.300781 263.214844 172.441406 261.714844 C 174.542969 259.128906 174.058594 255.367188 171.480469 253.265625 C 170.160156 252.246094 168.574219 251.847656 167.050781 252.035156 Z M 150 262.5 C 146.699219 262.5 144 265.199219 144 268.5 C 144 271.800781 146.699219 274.5 150 274.5 C 153.300781 274.5 156 271.800781 156 268.5 C 156 265.199219 153.300781 262.5 150 262.5 Z M 184.804688 266.050781 C 183.28125 266.222656 181.835938 266.976562 180.785156 268.265625 C 178.746094 270.898438 179.164062 274.675781 181.804688 276.714844 C 182.882812 277.613281 184.199219 277.980469 185.519531 277.980469 C 187.257812 277.980469 188.996094 277.195312 190.195312 275.695312 C 192.234375 273.117188 191.8125 269.34375 189.234375 267.304688 C 187.914062 266.285156 186.328125 265.878906 184.804688 266.050781 Z M 60 268.019531 C 56.699219 268.019531 54 270.652344 54 274.019531 C 54 277.320312 56.699219 280.019531 60 280.019531 C 63.300781 280.019531 66 277.320312 66 274.019531 C 66 270.652344 63.300781 268.019531 60 268.019531 Z M 202.546875 280.03125 C 201.015625 280.210938 199.558594 280.984375 198.539062 282.304688 C 196.5 284.878906 196.917969 288.648438 199.558594 290.695312 C 200.636719 291.59375 201.953125 292.019531 203.214844 292.019531 C 205.015625 292.019531 206.761719 291.234375 207.960938 289.734375 C 210 287.09375 209.578125 283.324219 207 281.285156 C 205.679688 280.265625 204.078125 279.851562 202.546875 280.03125 Z M 150 286.980469 C 146.699219 286.980469 144 289.679688 144 292.980469 C 144 296.28125 146.699219 298.980469 150 298.980469 C 153.300781 298.980469 156 296.28125 156 292.980469 C 156 289.679688 153.300781 286.980469 150 286.980469 Z M 60 290.695312 C 56.699219 290.695312 54 293.328125 54 296.695312 C 54 299.996094 56.699219 302.636719 60 302.636719 C 63.300781 302.636719 66 299.996094 66 296.695312 C 66 293.328125 63.300781 290.695312 60 290.695312 Z M 221.015625 294.070312 C 219.457031 294.070312 217.894531 294.625 216.785156 295.734375 C 215.644531 296.867188 214.980469 298.441406 214.980469 300 C 214.980469 301.558594 215.644531 303.125 216.785156 304.265625 C 217.863281 305.34375 219.421875 306 220.980469 306 C 222.601562 306 224.09375 305.34375 225.234375 304.265625 C 226.375 303.125 226.980469 301.558594 226.980469 300 C 226.980469 298.441406 226.375 296.867188 225.234375 295.734375 C 224.125 294.625 222.574219 294.070312 221.015625 294.070312 Z M 150 311.519531 C 146.699219 311.519531 144 314.152344 144 317.519531 C 144 320.820312 146.699219 323.519531 150 323.519531 C 153.300781 323.519531 156 320.820312 156 317.519531 C 156 314.152344 153.300781 311.519531 150 311.519531 Z M 60 313.324219 C 56.699219 313.324219 54 316.023438 54 319.324219 C 54 322.683594 56.699219 325.324219 60 325.324219 C 63.300781 325.324219 66 322.691406 66 319.324219 C 66 316.023438 63.300781 313.324219 60 313.324219 Z M 258 315.738281 L 258 330 L 238.59375 330 Z M 186 315.761719 L 198 324.609375 L 198 366 L 186 366 Z M 82.5 336 C 79.199219 336 76.5 338.699219 76.5 342 C 76.5 345.300781 79.199219 348 82.5 348 C 85.800781 348 88.5 345.300781 88.5 342 C 88.5 338.699219 85.800781 336 82.5 336 Z M 105 336 C 101.699219 336 99 338.699219 99 342 C 99 345.300781 101.699219 348 105 348 C 108.300781 348 111 345.300781 111 342 C 111 338.699219 108.300781 336 105 336 Z M 127.5 336 C 124.199219 336 121.5 338.699219 121.5 342 C 121.5 345.300781 124.199219 348 127.5 348 C 130.800781 348 133.5 345.300781 133.5 342 C 133.5 338.699219 130.800781 336 127.5 336 Z M 60.023438 336.070312 C 58.457031 336.070312 56.875 336.625 55.734375 337.734375 C 54.65625 338.867188 54 340.441406 54 342 C 54 343.558594 54.65625 345.125 55.734375 346.265625 C 56.875 347.34375 58.441406 348 60 348 C 61.558594 348 63.125 347.34375 64.265625 346.265625 C 65.34375 345.125 66 343.558594 66 342 C 66 340.441406 65.34375 338.867188 64.265625 337.734375 C 63.15625 336.625 61.589844 336.070312 60.023438 336.070312 Z M 150.023438 336.070312 C 148.457031 336.070312 146.875 336.625 145.734375 337.734375 C 144.65625 338.867188 144 340.441406 144 342 C 144 343.558594 144.65625 345.125 145.734375 346.265625 C 146.875 347.34375 148.441406 348 150 348 C 151.558594 348 153.125 347.34375 154.265625 346.265625 C 155.34375 345.125 156 343.558594 156 342 C 156 340.441406 155.34375 338.867188 154.265625 337.734375 C 153.15625 336.625 151.589844 336.070312 150.023438 336.070312 Z M 150.023438 336.070312 "/>
</g>
</svg>
