<?xml version="1.0" encoding="UTF-8"?>
<svg xmlns="http://www.w3.org/2000/svg" xmlns:xlink="http://www.w3.org/1999/xlink" viewBox="0 0 384 384" width="384px" height="384px">
<g id="surface14405084">
<path style=" stroke:none;fill-rule:nonzero;fill:rgb(80.000001%,80.000001%,80.000001%);fill-opacity:1;" d="M 367.710938 32 L 77.585938 32 C 69.808594 32 63.121094 37.390625 61.617188 44.894531 L 0.320312 348.894531 C -1.679688 358.785156 6.03125 368 16.289062 368 L 309.648438 368 C 317.488281 368 324.207031 362.511719 325.648438 354.945312 L 383.710938 50.945312 C 385.601562 41.105469 377.902344 32 367.710938 32 Z M 256 304 L 208 304 L 195.742188 271.089844 L 182.0625 282.816406 L 176.015625 304 L 144.015625 304 L 166.878906 224 L 96.015625 224 L 96.015625 209.777344 C 96.015625 207.726562 94.894531 186.367188 116.703125 171.28125 C 127.40625 163.871094 140.097656 159.601562 155.519531 155.535156 C 170.046875 151.695312 192.015625 147.824219 192.015625 138.671875 C 192.015625 131.199219 186.238281 128 170.65625 128 C 155.601562 128 144.015625 137.761719 144.015625 144.015625 L 112.015625 144.015625 C 112.015625 119.601562 137.296875 96.015625 172.335938 96.015625 C 208.015625 96.015625 224.015625 118.128906 224.015625 138.6875 C 224.015625 167.167969 189.679688 176.207031 164.609375 182.816406 C 155.761719 185.121094 141.457031 186.558594 135.199219 192 L 208.015625 192 L 198.527344 225.183594 L 240.015625 192 L 288.015625 192 L 230.816406 241.023438 Z M 256 304 "/>
</g>
</svg>
