<?xml version="1.0" encoding="UTF-8"?>
<svg xmlns="http://www.w3.org/2000/svg" xmlns:xlink="http://www.w3.org/1999/xlink" viewBox="0 0 500 500" width="500px" height="500px">
<g id="surface14398220">
<path style=" stroke:none;fill-rule:nonzero;fill:rgb(80.000001%,80.000001%,80.000001%);fill-opacity:1;" d="M 140 50 C 90.464844 50 50 90.464844 50 140 L 50 360 C 50 409.535156 90.464844 450 140 450 L 360 450 C 409.535156 450 450 409.535156 450 360 L 450 140 C 450 90.464844 409.535156 50 360 50 Z M 140 70 L 360 70 C 398.6875 70 430 101.3125 430 140 L 430 360 C 430 398.6875 398.6875 430 360 430 L 140 430 C 101.3125 430 70 398.6875 70 360 L 70 140 C 70 101.3125 101.3125 70 140 70 Z M 193.300781 130 C 152.960938 130 120.253906 232.96875 120.253906 360 L 152.734375 360 C 152.734375 242.050781 170.890625 146.425781 193.300781 146.425781 C 215.710938 146.425781 233.90625 234.683594 233.90625 343.574219 L 266.367188 343.574219 C 266.367188 234.683594 284.53125 146.425781 306.953125 146.425781 C 329.363281 146.425781 347.539062 242.050781 347.539062 360 L 380 360 C 380 232.96875 347.292969 130 306.953125 130 C 284.003906 130 263.527344 160.945312 250.136719 209.335938 C 236.757812 160.945312 216.25 130 193.300781 130 Z M 193.300781 130 "/>
</g>
</svg>
