<?xml version="1.0" encoding="UTF-8"?>
<svg xmlns="http://www.w3.org/2000/svg" xmlns:xlink="http://www.w3.org/1999/xlink" viewBox="0 0 500 500" width="500px" height="500px">
<g id="surface14104290">
<path style=" stroke:none;fill-rule:nonzero;fill:rgb(80.000001%,80.000001%,80.000001%);fill-opacity:1;" d="M 380.097656 70 L 360.097656 99.902344 L 366.503906 110.097656 L 376.699219 93.203125 C 376.898438 95.304688 381.992188 114.800781 384.492188 121.601562 C 389.390625 135.203125 398.792969 148.40625 412.792969 154.707031 C 426.59375 161.105469 442.003906 160.304688 455.703125 157.304688 C 466.902344 154.804688 477.496094 146.695312 487.695312 141.894531 C 481.09375 153.292969 475.492188 169.398438 471.191406 181.796875 C 465.992188 196.898438 461.996094 212.402344 459.296875 228.203125 C 456.597656 244.003906 455.089844 260.105469 455.390625 276.40625 C 455.589844 287.304688 456.109375 303.292969 458.808594 314.394531 C 432.410156 310.996094 406.09375 304.703125 379.492188 306.601562 C 347.390625 308.800781 315.589844 315.507812 285.390625 326.40625 C 226.492188 347.605469 176.492188 384.109375 131.191406 425.507812 C 116.292969 408.507812 95.890625 396.796875 76.191406 387.597656 C 65.390625 382.699219 54.40625 378.59375 43.105469 375.195312 C 34.105469 372.59375 25.109375 370.300781 15.507812 369.199219 C 25.90625 358 34.195312 345.195312 41.09375 331.894531 C 49.09375 316.292969 55.503906 300 60.703125 283.398438 C 69.804688 254.199219 75.589844 224.003906 77.890625 193.203125 C 103.789062 200.101562 129.996094 206.207031 156.894531 209.707031 C 176.695312 212.207031 196.90625 213.492188 217.207031 211.992188 C 213.507812 209.390625 210.207031 206.402344 207.207031 203.203125 C 205.308594 201.203125 203.890625 198.792969 202.890625 196.191406 C 188.492188 195.992188 173.792969 194.507812 159.492188 192.207031 C 129.792969 187.507812 102.007812 182.902344 73.007812 174.003906 L 60 169.902344 L 60 183.59375 C 60.101562 185.792969 60.097656 187.996094 60.097656 190.195312 C 60.097656 220.695312 55 249.308594 47.5 279.707031 C 43.5 296.007812 38.398438 312.101562 31.699219 327.402344 C 25 342.703125 16.707031 357.410156 5.507812 369.609375 L 0.0976562 375.390625 L 8.007812 375.605469 C 18.707031 376.207031 30 379.296875 40.800781 382.695312 C 51.601562 386.195312 62.300781 390.394531 72.5 395.292969 C 92.800781 405.292969 113.5 418.203125 126.699219 435.703125 L 130 440 L 134.199219 436.40625 C 157.5 415.90625 181.894531 396.789062 207.792969 380.390625 C 233.691406 363.992188 261.089844 350.402344 290.390625 340.703125 C 319.589844 331.101562 350.007812 325.597656 380.507812 324.296875 C 411.109375 322.898438 441.304688 330.703125 471.503906 336.601562 L 490.195312 340.195312 L 482.304688 322.109375 C 475.90625 310.410156 473.195312 290.40625 471.796875 275.507812 C 470.296875 260.507812 470.496094 245.105469 471.796875 229.804688 C 474.796875 199.40625 481.804688 164.507812 496.40625 137.207031 L 500.292969 129.902344 L 493.105469 133.691406 C 480.707031 139.492188 467.695312 148.492188 454.394531 151.09375 C 441.394531 153.59375 427.492188 153.589844 416.09375 147.890625 C 404.59375 142.191406 398.09375 130.589844 392.792969 118.691406 C 382.59375 95.589844 380.097656 70 380.097656 70 Z M 293.105469 80 C 280.597656 80.15625 267.421875 82.800781 255.351562 88.515625 C 228.152344 101.304688 212.460938 128.429688 209.511719 149.941406 C 209.3125 151.292969 208.613281 153.222656 204.941406 155.742188 C 201.582031 158.0625 199.035156 161.550781 200.566406 165.332031 C 201.6875 168.242188 204.636719 170.050781 207.695312 169.980469 C 211.253906 169.902344 210.855469 167.1875 207.695312 166.40625 C 206.976562 166.214844 206.5625 165.632812 206.640625 164.941406 C 206.851562 164.363281 207.476562 163.882812 208.085938 163.984375 C 208.085938 163.984375 236.152344 168.816406 250.3125 167.167969 C 264.261719 165.90625 278.472656 161.5625 290.800781 154.882812 C 303.019531 148.492188 314.03125 139.679688 322.890625 129.21875 C 327.171875 123.890625 331.347656 118.355469 334.707031 112.34375 C 338.265625 106.625 343.476562 93.945312 343.476562 93.945312 C 343.6875 93.367188 344.390625 92.972656 345 93.164062 C 345.71875 93.355469 346.019531 94.050781 345.917969 94.628906 C 344.929688 98.089844 346.929688 98.59375 347.851562 97.8125 C 351.011719 95.191406 350.714844 90.367188 347.65625 87.558594 C 344.707031 84.75 340.828125 85.617188 336.757812 87.265625 C 334.316406 88.335938 329.425781 87.546875 326.875 86.386719 C 317.449219 82.171875 305.613281 79.84375 293.105469 80 Z M 345.839844 119.316406 C 345.238281 119.460938 344.652344 120.046875 344.355469 120.976562 C 342.984375 125.304688 328.546875 156.625 299.726562 170.195312 C 256.945312 190.335938 229.179688 180.8125 223.769531 179.824219 C 221.917969 179.496094 220.566406 181.171875 221.894531 182.480469 C 240.113281 200.449219 279.976562 206.167969 307.265625 192.1875 C 355.875 167.277344 352.292969 131.191406 347.421875 120.292969 C 347.058594 119.46875 346.441406 119.171875 345.839844 119.316406 Z M 368.007812 150 L 355.175781 161.816406 C 350.285156 179.246094 340.730469 192.800781 327.128906 203.730469 L 325.3125 204.785156 L 323.632812 217.851562 L 335.546875 213.554688 L 324.179688 290 L 353.828125 281.855469 L 362.675781 203.945312 L 378.652344 198.203125 C 386.042969 195.542969 390.71875 188.25 390.039062 180.429688 L 364.550781 188.984375 Z M 426.25 183.535156 C 403.789062 185.253906 388.171875 200.5625 377.363281 219.921875 C 366.554688 239.28125 364.382812 277.996094 395.3125 274.804688 C 426.242188 271.613281 439.84375 235.78125 439.84375 235.78125 L 436.445312 232.128906 C 426.386719 248.808594 413.472656 260.207031 403.261719 254.21875 C 393.042969 248.238281 400.699219 224.902344 404.667969 213.613281 C 408.636719 202.324219 414.980469 194.636719 418.339844 195.175781 C 421.699219 195.714844 421.578125 200.589844 418.457031 210.917969 C 415.347656 221.246094 404.792969 232.433594 401.914062 234.355469 C 399.035156 236.277344 398.3125 237.886719 401.601562 237.226562 C 404.890625 236.566406 413.375 233.648438 426.894531 223.4375 C 440.414062 213.226562 448.421875 181.835938 426.25 183.535156 Z M 320.097656 205.585938 L 293.632812 218.789062 L 280.097656 305.371094 L 307.558594 293.671875 Z M 280.117188 220.332031 C 271.355469 220.121094 259.734375 227.996094 249.804688 248.105469 C 247.542969 240.234375 238.984375 236.40625 238.984375 236.40625 L 225.136719 241.640625 C 229.277344 245.589844 231.710938 257.144531 229.0625 274.042969 L 220.117188 332.03125 L 247.167969 316.816406 L 254.765625 264.804688 C 256.085938 255.835938 262.820312 248.949219 271.171875 248.027344 L 275.390625 247.578125 Z M 139.609375 225.996094 C 127.820312 226.542969 112.957031 229.902344 100.605469 241.171875 C 79.65625 260.550781 84.066406 287.230469 95.507812 296.171875 C 106.949219 305.113281 126.878906 316.59375 105.859375 336.054688 C 88.917969 351.746094 69.0625 333.984375 69.0625 333.984375 L 60.097656 367.988281 C 76.328125 372.9375 102.285156 369.097656 119.296875 354.257812 C 136.296875 339.417969 143.417969 319.304688 143.417969 307.65625 C 143.417969 296.007812 138.085938 285.382812 125.527344 274.472656 C 120.078125 269.734375 113.285156 261.238281 115.644531 254.6875 C 119.484375 244.039062 138.023438 237.785156 154.84375 255.644531 L 160.117188 227.714844 C 160.117188 227.714844 151.398438 225.449219 139.609375 225.996094 Z M 197.363281 250.9375 C 195.476562 251.074219 193.558594 251.5 191.640625 252.226562 L 150.078125 267.988281 C 157.957031 270.828125 157.675781 281.496094 155.605469 294.746094 C 153.527344 307.996094 140.097656 385.214844 140.097656 385.214844 L 167.167969 364.6875 L 177.949219 298.203125 C 182.289062 266.921875 187.324219 266.601562 190.683594 266.601562 C 194.042969 266.601562 199.992188 270.484375 194.882812 294.414062 C 189.773438 318.34375 174.785156 335.527344 174.785156 335.527344 C 171.464844 338.738281 170.765625 340.730469 171.894531 340.332031 C 195.113281 332.171875 213.015625 312.085938 218.105469 286.367188 L 219.726562 278.183594 L 219.785156 277.753906 C 222.15625 262.632812 210.578125 249.96875 197.363281 250.9375 Z M 197.363281 250.9375 "/>
</g>
</svg>
