<?xml version="1.0" encoding="UTF-8"?>
<svg xmlns="http://www.w3.org/2000/svg" xmlns:xlink="http://www.w3.org/1999/xlink" viewBox="0 0 480 480" width="480px" height="480px">
<g id="surface14423254">
<path style=" stroke:none;fill-rule:nonzero;fill:rgb(80.000001%,80.000001%,80.000001%);fill-opacity:1;" d="M 412.5 227.5 C 402.5 227.5 395 227.5 386.25 227.5 C 383.75 227.5 380 236.25 383.75 236.25 C 388.339844 236.25 390.949219 236.199219 398.75 236.25 C 399.699219 236.261719 403.75 236.25 403.75 241.25 C 403.75 244.101562 402.5 247.5 396.25 247.5 C 392.5 247.5 390 247.5 378.75 247.5 C 375 247.5 372.5 257.5 372.5 261.25 C 372.5 263.75 373.75 263.75 375 263.75 C 377.578125 263.75 396.269531 257.089844 400 257.5 C 402.96875 257.828125 405 260.238281 405 263.75 C 405 270 384.039062 279.960938 371.25 279.960938 C 366.25 279.960938 357.5 276.429688 357.5 266.25 C 357.5 258.75 362.5 248.75 362.5 246.25 C 362.5 243.75 361.25 243.75 361.25 241.25 C 361.25 238.75 362.5 236.25 367.5 236.25 C 368.75 236.25 370 232.5 371.25 226.25 C 371.738281 223.78125 368.75 225 363.75 222.5 C 359.25 220.25 360.039062 215.929688 362.5 214.808594 C 365.179688 213.601562 391.269531 213.019531 405.609375 212.238281 C 409.160156 212.050781 413.121094 212.109375 416.25 222.5 C 417.039062 225.128906 415 227.5 412.5 227.5 Z M 412.5 227.5 "/>
<path style=" stroke:none;fill-rule:nonzero;fill:rgb(80.000001%,80.000001%,80.000001%);fill-opacity:1;" d="M 336.25 278.75 C 328.148438 278.75 322.5 265 317.5 251.25 C 314.25 242.300781 313.75 240 312.5 240 C 311.25 240 310 245 310 253.75 C 310 277.5 306.25 280 302.5 280 C 297.5 280 296.25 271.039062 296.25 265 C 296.25 232.5 306.25 217.5 310 217.5 C 311.828125 217.5 314.25 218.339844 316.25 221.25 C 330 241.25 333.75 260 336.25 260 C 337.5 260 338.75 256.25 338.75 251.25 C 338.75 228.75 333.75 220 331.25 208.75 C 330.648438 206.039062 332.691406 204.660156 335 206.25 C 340.988281 210.371094 352.5 222.5 352.5 246.25 C 352.5 270 343.871094 278.75 336.25 278.75 Z M 336.25 278.75 "/>
<path style=" stroke:none;fill-rule:nonzero;fill:rgb(80.000001%,80.000001%,80.000001%);fill-opacity:1;" d="M 290 222.5 C 290 226.25 287.5 228.75 282.5 228.75 C 275 228.75 268.75 226.25 257.5 226.25 C 237.5 226.25 237.5 228.75 237.5 231.25 C 237.5 235.011719 257.5 233.75 270 236.25 C 282.5 238.75 291.25 242.5 291.25 256.25 C 291.109375 265.230469 286.25 280 260 280 C 241.25 280 226.25 271.25 226.25 260 C 226.25 256.109375 227.5 247.5 242.5 247.5 C 253.75 247.5 272.5 252.5 272.5 256.25 C 272.5 260 267.769531 262.5 260 262.5 C 250 262.5 243.75 255 236.25 255 C 233.75 255 232.5 256.25 232.5 258.75 C 232.5 266.25 251.25 268.75 260 268.75 C 268.011719 268.75 280 266.25 280 257.5 C 280 252.5 276.25 247.5 255 245 C 249.828125 244.390625 226.25 245 226.25 231.25 C 226.25 220 236.449219 212.5 260 212.5 C 283.550781 212.5 290 217.5 290 222.5 Z M 290 222.5 "/>
<path style=" stroke:none;fill-rule:nonzero;fill:rgb(80.000001%,80.000001%,80.000001%);fill-opacity:1;" d="M 212.5 280 C 209.859375 280 207.261719 278.851562 206.171875 277.339844 C 204.28125 274.988281 203.558594 273.839844 203.75 253.75 C 204.21875 238.851562 205 215 211.25 215 C 216.25 215 220 221.25 220 257.5 C 220 280 218.75 280 212.5 280 Z M 212.5 280 "/>
<path style=" stroke:none;fill-rule:nonzero;fill:rgb(80.000001%,80.000001%,80.000001%);fill-opacity:1;" d="M 241.25 158.75 C 241.25 158.75 240 150.039062 225.871094 150.039062 C 200 150.039062 190 170 190 176.25 C 190 186.25 193.75 188.75 195 191.25 C 196.25 193.75 195 196.25 195 198.75 C 195 201.25 196.25 202.5 198.75 202.5 C 201.25 202.5 201.558594 200.308594 202.5 198.75 C 203.441406 197.191406 205 196.25 205 196.25 C 205 196.25 207.5 200 222.5 200 C 240.519531 200 260 184.25 260 172.5 C 260 156.25 241.328125 158.808594 241.25 158.75 Z M 200 183.75 C 198.75 181.25 201.25 163.75 221.25 162.5 C 215 166.25 207.5 171.25 200 183.75 Z M 209.511719 188.398438 C 216.25 173.75 231.230469 165.800781 238.011719 165.800781 C 243.738281 165.800781 246.238281 168.75 246.238281 172.5 C 246.25 180 228.75 193.75 209.511719 188.398438 Z M 209.511719 188.398438 "/>
<path style=" stroke:none;fill-rule:nonzero;fill:rgb(80.000001%,80.000001%,80.000001%);fill-opacity:1;" d="M 467.5 217.5 C 453.75 217.5 436.25 240 428.75 258.75 C 423.75 251.25 427.5 241.25 431.25 235 C 434.199219 230.078125 442.5 221.25 442.5 215 C 442.5 213.75 442.5 211.25 440 211.25 C 437.5 211.25 435.261719 212.730469 431.898438 216.25 C 418.75 230 411.25 243.191406 411.25 253.75 C 411.25 268.75 417.5 272.5 422.5 275 C 417.5 287.5 412.5 311.25 412.5 327.5 C 412.5 332.5 417.5 340 426.25 340 C 430.359375 340 431.25 338.75 431.25 333.75 C 431.25 302.5 438.75 280 438.75 280 C 450 280 480 269.910156 480 235 C 480 221.550781 473.75 217.5 467.5 217.5 Z M 460.511719 256.808594 C 458.191406 258.941406 451.25 263.75 445 265 C 447.5 256.25 455 243.75 462.5 235 C 467.101562 229.628906 468.808594 230 470 230 C 472.039062 230 472.539062 232.5 472.539062 233.75 C 472.539062 245 464.140625 253.480469 460.511719 256.808594 Z M 460.511719 256.808594 "/>
<path style=" stroke:none;fill-rule:nonzero;fill:rgb(80.000001%,80.000001%,80.000001%);fill-opacity:1;" d="M 42.5 140 C 13.75 140 0 146.039062 0 153.75 C 0 157.449219 2.5 163.75 12.5 163.75 C 12.5 163.75 17.5 163.75 17.5 160 C 17.5 157.5 14.730469 157.5 12.5 157.5 C 10 157.5 10 156.25 10 156.25 C 10 153.75 15 151.25 42.5 151.25 C 103.75 151.25 173.75 205.160156 173.75 241.25 C 173.75 273.75 136.011719 276.25 121.25 276.25 C 106.25 276.25 93.75 273.75 93.75 273.75 C 93.75 273.75 93.75 242.179688 93.75 230 C 123.75 230 138.410156 234.25 138.410156 240.25 C 138.410156 246.25 130 243.75 130 246.25 C 130 248.75 135.28125 250.28125 138.75 250 C 142.21875 249.71875 150 248.53125 150 238.75 C 150 228.75 142.5 213.75 93.75 213.75 C 93.75 213.75 93.75 198.75 93.75 196.25 C 93.75 193.75 92.5 180 85 180 C 77.5 180 76.25 192.871094 76.25 196.25 C 76.25 205 76.140625 213.75 76.140625 213.75 C 58.75 215 30 221.25 30 240 C 30 257.5 56.25 271.25 76.25 281.25 C 76.25 287.5 76.25 287.5 76.25 291.25 C 76.25 295 78.75 300 85 300 C 92.5 300 93.75 293.75 93.75 286.25 C 93.75 286.25 106.25 290 122.5 290 C 178.75 290 195 261.25 195 240 C 195 192.5 126.25 140 42.5 140 Z M 76.25 267.5 C 76.25 267.5 37.5 251.25 37.5 240 C 37.5 230 67.5 230 76.25 230 Z M 76.25 267.5 "/>
</g>
</svg>
