<?xml version="1.0" encoding="UTF-8"?>
<svg xmlns="http://www.w3.org/2000/svg" xmlns:xlink="http://www.w3.org/1999/xlink" viewBox="0 0 500 500" width="500px" height="500px">
<g id="surface14433648">
<path style=" stroke:none;fill-rule:nonzero;fill:rgb(80.000001%,80.000001%,80.000001%);fill-opacity:1;" d="M 50 40 C 44.480469 40 40 44.46875 40 50 L 40 240 L 240 240 L 240 40 Z M 260 40 L 260 240 L 460 240 L 460 50 C 460 44.46875 455.519531 40 450 40 Z M 40 260 L 40 450 C 40 455.53125 44.480469 460 50 460 L 240 460 L 240 260 Z M 260 260 L 260 460 L 450 460 C 455.519531 460 460 455.53125 460 450 L 460 260 Z M 260 260 "/>
</g>
</svg>
