<?xml version="1.0" encoding="UTF-8"?>
<svg xmlns="http://www.w3.org/2000/svg" xmlns:xlink="http://www.w3.org/1999/xlink" viewBox="0 0 512 512" width="512px" height="512px">
<g id="surface14431602">
<path style=" stroke:none;fill-rule:nonzero;fill:rgb(80.000001%,80.000001%,80.000001%);fill-opacity:1;" d="M 254.828125 18.421875 C 252.257812 18.554688 249.910156 19.914062 248.515625 22.078125 C 228.433594 53.238281 225.785156 90.320312 242.390625 119.609375 C 242.402344 119.625 242.410156 119.640625 242.421875 119.65625 L 306.90625 231.375 C 320.0625 254.164062 321.398438 281.390625 312.1875 306.265625 L 257.8125 212.0625 C 256.382812 209.585938 253.738281 208.058594 250.875 208.0625 L 255.375 208.0625 L 205.59375 121.859375 C 204.160156 119.378906 201.511719 117.851562 198.648438 117.859375 C 195.78125 117.867188 193.140625 119.402344 191.71875 121.890625 C 174.078125 152.832031 173.3125 189.703125 188.625 220.703125 C 188.710938 221.921875 189.074219 223.101562 189.6875 224.15625 L 250.140625 328.859375 C 262.832031 350.84375 263.789062 377.371094 254.28125 401.796875 L 161.4375 240.984375 C 159.070312 236.890625 157.183594 232.449219 155.5 227.734375 C 154.082031 223.761719 149.820312 221.574219 145.765625 222.734375 C 110.367188 232.847656 80.40625 247.664062 58.859375 266.140625 C 37.3125 284.617188 24 307.261719 24 332 C 24 368.207031 51.910156 399.367188 93.921875 421.125 C 135.933594 442.882812 193.023438 456 256 456 C 318.976562 456 376.066406 442.882812 418.078125 421.125 C 460.089844 399.367188 488 368.207031 488 332 C 488 306.582031 473.96875 283.386719 451.359375 264.609375 C 429.9375 246.816406 400.179688 232.847656 365.703125 223.015625 C 365.21875 209.273438 362.238281 195.738281 355.265625 183.671875 L 355.265625 183.65625 L 262.171875 22.40625 C 260.667969 19.804688 257.832031 18.265625 254.828125 18.421875 Z M 255.8125 43.390625 L 341.421875 191.65625 C 341.421875 191.660156 341.421875 191.667969 341.421875 191.671875 C 347.828125 202.757812 350.710938 215.386719 350.3125 228.578125 C 350.203125 232.289062 352.660156 235.589844 356.25 236.546875 C 391.515625 245.941406 420.964844 260.164062 441.140625 276.921875 C 461.316406 293.679688 472 312.449219 472 332 C 472 359.859375 449.777344 386.695312 410.71875 406.921875 C 371.660156 427.148438 316.738281 440 256 440 C 195.261719 440 140.339844 427.148438 101.28125 406.921875 C 62.222656 386.695312 40 359.859375 40 332 C 40 312.972656 50.121094 294.710938 69.28125 278.28125 C 87.109375 262.992188 113.167969 250.089844 143.78125 240.5625 C 145.011719 243.382812 145.96875 246.21875 147.578125 249 L 248.375 423.53125 C 249.796875 425.992188 252.421875 427.511719 255.261719 427.523438 C 258.105469 427.535156 260.742188 426.039062 262.1875 423.59375 C 281.226562 391.214844 282.066406 352.152344 264 320.859375 C 263.996094 320.859375 263.988281 320.859375 263.984375 320.859375 L 204.59375 218 C 204.4375 217.417969 204.21875 216.859375 203.9375 216.328125 C 191.964844 194.003906 190.929688 167.8125 199.796875 143.8125 L 243.828125 220.0625 C 245.1875 222.421875 247.652344 223.929688 250.375 224.0625 L 246.265625 224.0625 L 306.421875 328.265625 C 307.855469 330.746094 310.507812 332.265625 313.371094 332.257812 C 316.238281 332.246094 318.878906 330.707031 320.296875 328.21875 C 339.058594 295.304688 339.3125 255.5 320.765625 223.375 L 256.296875 111.71875 C 244.949219 91.707031 245.164062 66.886719 255.8125 43.390625 Z M 47.875 151.890625 C 43.460938 151.960938 39.941406 155.585938 40 160 L 40 176 C 39.960938 178.886719 41.476562 181.570312 43.96875 183.023438 C 46.457031 184.476562 49.542969 184.476562 52.03125 183.023438 C 54.523438 181.570312 56.039062 178.886719 56 176 L 56 160 C 56.03125 157.835938 55.183594 155.753906 53.652344 154.226562 C 52.121094 152.699219 50.039062 151.855469 47.875 151.890625 Z M 87.875 151.890625 C 83.460938 151.960938 79.941406 155.585938 80 160 L 80 176 C 79.960938 178.886719 81.476562 181.570312 83.96875 183.023438 C 86.457031 184.476562 89.542969 184.476562 92.03125 183.023438 C 94.523438 181.570312 96.039062 178.886719 96 176 L 96 160 C 96.03125 157.835938 95.183594 155.753906 93.652344 154.226562 C 92.121094 152.699219 90.039062 151.855469 87.875 151.890625 Z M 127.875 151.890625 C 123.460938 151.960938 119.941406 155.585938 120 160 L 120 176 C 119.960938 178.886719 121.476562 181.570312 123.96875 183.023438 C 126.457031 184.476562 129.542969 184.476562 132.03125 183.023438 C 134.523438 181.570312 136.039062 178.886719 136 176 L 136 160 C 136.03125 157.835938 135.183594 155.753906 133.652344 154.226562 C 132.121094 152.699219 130.039062 151.855469 127.875 151.890625 Z M 391.875 151.890625 C 387.460938 151.960938 383.941406 155.585938 384 160 L 384 176 C 383.960938 178.886719 385.476562 181.570312 387.96875 183.023438 C 390.457031 184.476562 393.542969 184.476562 396.03125 183.023438 C 398.523438 181.570312 400.039062 178.886719 400 176 L 400 160 C 400.03125 157.835938 399.183594 155.753906 397.652344 154.226562 C 396.121094 152.699219 394.039062 151.855469 391.875 151.890625 Z M 431.875 151.890625 C 427.460938 151.960938 423.941406 155.585938 424 160 L 424 176 C 423.960938 178.886719 425.476562 181.570312 427.96875 183.023438 C 430.457031 184.476562 433.542969 184.476562 436.03125 183.023438 C 438.523438 181.570312 440.039062 178.886719 440 176 L 440 160 C 440.03125 157.835938 439.183594 155.753906 437.652344 154.226562 C 436.121094 152.699219 434.039062 151.855469 431.875 151.890625 Z M 471.875 151.890625 C 467.460938 151.960938 463.941406 155.585938 464 160 L 464 176 C 463.960938 178.886719 465.476562 181.570312 467.96875 183.023438 C 470.457031 184.476562 473.542969 184.476562 476.03125 183.023438 C 478.523438 181.570312 480.039062 178.886719 480 176 L 480 160 C 480.03125 157.835938 479.183594 155.753906 477.652344 154.226562 C 476.121094 152.699219 474.039062 151.855469 471.875 151.890625 Z M 429.65625 292.671875 C 427.617188 292.488281 425.515625 293.09375 423.828125 294.515625 C 420.445312 297.347656 419.996094 302.390625 422.828125 305.78125 C 428.917969 313.0625 432 320.527344 432 328 C 432 349.472656 406.402344 370.601562 363.53125 384.53125 C 359.332031 385.898438 357.046875 390.410156 358.40625 394.609375 C 359.503906 397.984375 362.640625 400.140625 366.015625 400.140625 C 366.832031 400.140625 367.660156 400.015625 368.484375 399.75 C 419.019531 383.335938 448 357.175781 448 328 C 448 316.671875 443.652344 305.746094 435.09375 295.515625 C 433.671875 293.824219 431.699219 292.855469 429.65625 292.671875 Z M 325.765625 393.921875 C 318.292969 395.28125 310.476562 396.445312 302.53125 397.375 C 298.148438 397.886719 295.003906 401.859375 295.515625 406.25 C 295.996094 410.320312 299.453125 413.3125 303.453125 413.3125 C 303.765625 413.3125 304.085938 413.304688 304.40625 413.265625 C 312.6875 412.296875 320.832031 411.089844 328.640625 409.65625 C 332.984375 408.863281 335.871094 404.710938 335.078125 400.359375 C 334.277344 396.015625 330.15625 393.097656 325.765625 393.921875 Z M 325.765625 393.921875 "/>
</g>
</svg>
