<?xml version="1.0" encoding="UTF-8"?>
<svg xmlns="http://www.w3.org/2000/svg" xmlns:xlink="http://www.w3.org/1999/xlink" viewBox="0 0 480 480" width="480px" height="480px">
<g id="surface14433960">
<path style=" stroke:none;fill-rule:nonzero;fill:rgb(80.000001%,80.000001%,80.000001%);fill-opacity:1;" d="M 479.699219 198.261719 C 486.238281 235.730469 384.230469 284.808594 251.820312 307.859375 C 119.441406 330.921875 6.820312 319.21875 0.289062 281.730469 C -6.238281 244.261719 95.800781 195.191406 228.191406 172.148438 C 360.589844 149.070312 473.179688 160.78125 479.699219 198.261719 Z M 479.699219 198.261719 "/>
<path style=" stroke:none;fill-rule:nonzero;fill:rgb(98.039216%,98.039216%,98.039216%);fill-opacity:1;" d="M 355.101562 253.878906 L 354.421875 214.921875 L 366.710938 214.921875 L 366.710938 264.03125 L 349.050781 264.03125 L 336.78125 223.730469 L 336.519531 223.730469 L 337.199219 264.03125 L 324.988281 264.03125 L 324.988281 214.921875 L 343.421875 214.921875 L 354.828125 253.878906 Z M 355.101562 253.878906 "/>
<path style=" stroke:none;fill-rule:nonzero;fill:rgb(98.039216%,98.039216%,98.039216%);fill-opacity:1;" d="M 131.769531 219.519531 L 124.96875 264.550781 L 111.570312 264.550781 L 120.761719 214.921875 L 142.839844 214.921875 L 152.011719 264.550781 L 138.648438 264.550781 L 132.039062 219.519531 Z M 131.769531 219.519531 "/>
<path style=" stroke:none;fill-rule:nonzero;fill:rgb(98.039216%,98.039216%,98.039216%);fill-opacity:1;" d="M 189.640625 252.859375 L 195.769531 214.921875 L 216.011719 214.921875 L 217.078125 264.550781 L 204.679688 264.550781 L 204.351562 219.929688 L 204.089844 219.929688 L 195.800781 264.550781 L 183.210938 264.550781 L 174.898438 219.929688 L 174.640625 219.929688 L 174.328125 264.550781 L 161.898438 264.550781 L 163 214.921875 L 183.25 214.921875 L 189.371094 252.859375 Z M 189.640625 252.859375 "/>
<path style=" stroke:none;fill-rule:nonzero;fill:rgb(98.039216%,98.039216%,98.039216%);fill-opacity:1;" d="M 90.671875 250.550781 C 91.160156 251.75 91.011719 253.300781 90.78125 254.230469 C 90.359375 255.878906 89.238281 257.558594 85.949219 257.558594 C 82.828125 257.558594 80.949219 255.769531 80.949219 253.058594 L 80.949219 248.261719 L 67.628906 248.261719 L 67.621094 252.101562 C 67.621094 263.160156 76.328125 266.511719 85.671875 266.511719 C 94.648438 266.511719 102.039062 263.441406 103.210938 255.171875 C 103.820312 250.878906 103.359375 248.078125 103.160156 247.011719 C 101.070312 236.621094 82.230469 233.519531 80.828125 227.710938 C 80.589844 226.71875 80.660156 225.660156 80.78125 225.089844 C 81.128906 223.511719 82.210938 221.769531 85.308594 221.769531 C 88.210938 221.769531 89.921875 223.570312 89.921875 226.269531 C 89.921875 227.179688 89.921875 229.339844 89.921875 229.339844 L 102.289062 229.339844 L 102.289062 225.859375 C 102.289062 215.050781 92.589844 213.359375 85.558594 213.359375 C 76.730469 213.359375 69.519531 216.28125 68.199219 224.351562 C 67.839844 226.578125 67.789062 228.570312 68.308594 231.058594 C 70.488281 241.179688 88.109375 244.121094 90.671875 250.550781 Z M 90.671875 250.550781 "/>
<path style=" stroke:none;fill-rule:nonzero;fill:rgb(98.039216%,98.039216%,98.039216%);fill-opacity:1;" d="M 252.039062 250.460938 C 252.53125 251.648438 252.371094 253.160156 252.148438 254.089844 C 251.738281 255.738281 250.628906 257.390625 247.359375 257.390625 C 244.289062 257.390625 242.421875 255.601562 242.421875 252.949219 L 242.410156 248.191406 L 229.230469 248.191406 L 229.210938 251.980469 C 229.210938 262.929688 237.839844 266.238281 247.078125 266.238281 C 255.960938 266.238281 263.28125 263.210938 264.441406 255.019531 C 265.050781 250.761719 264.621094 248 264.398438 246.949219 C 262.320312 236.660156 243.671875 233.589844 242.289062 227.828125 C 242.050781 226.839844 242.121094 225.800781 242.238281 225.261719 C 242.601562 223.660156 243.660156 221.96875 246.730469 221.96875 C 249.609375 221.96875 251.28125 223.71875 251.28125 226.410156 C 251.28125 227.308594 251.28125 229.449219 251.28125 229.449219 L 263.558594 229.449219 L 263.558594 226 C 263.558594 215.300781 253.941406 213.628906 246.96875 213.628906 C 238.238281 213.628906 231.089844 216.511719 229.800781 224.53125 C 229.441406 226.730469 229.398438 228.679688 229.921875 231.160156 C 232.058594 241.179688 249.511719 244.101562 252.039062 250.460938 Z M 252.039062 250.460938 "/>
<path style=" stroke:none;fill-rule:nonzero;fill:rgb(98.039216%,98.039216%,98.039216%);fill-opacity:1;" d="M 293.71875 257.128906 C 297.160156 257.128906 298.230469 254.75 298.46875 253.53125 C 298.570312 252.988281 298.601562 252.28125 298.589844 251.628906 L 298.589844 214.898438 L 311.140625 214.898438 L 311.140625 250.5 C 311.171875 251.410156 311.078125 253.289062 311.03125 253.75 C 310.148438 263.019531 302.820312 266.019531 293.710938 266.019531 C 284.578125 266.019531 277.25 263.011719 276.378906 253.75 C 276.339844 253.28125 276.25 251.398438 276.269531 250.5 L 276.269531 214.898438 L 288.808594 214.898438 L 288.808594 251.621094 C 288.808594 252.261719 288.828125 252.988281 288.929688 253.519531 C 289.210938 254.730469 290.25 257.128906 293.71875 257.128906 Z M 293.71875 257.128906 "/>
<path style=" stroke:none;fill-rule:nonzero;fill:rgb(98.039216%,98.039216%,98.039216%);fill-opacity:1;" d="M 397.25 256.601562 C 400.839844 256.601562 402.101562 254.328125 402.328125 253.011719 C 402.421875 252.441406 402.449219 251.75 402.441406 251.121094 L 402.441406 243.921875 L 397.351562 243.921875 L 397.351562 236.679688 L 414.949219 236.679688 L 414.949219 250 C 414.941406 250.929688 414.921875 251.621094 414.769531 253.269531 C 413.949219 262.300781 406.109375 265.519531 397.320312 265.519531 C 388.511719 265.519531 380.691406 262.300781 379.851562 253.269531 C 379.710938 251.609375 379.691406 250.929688 379.671875 250 L 379.679688 229.109375 C 379.679688 228.230469 379.789062 226.671875 379.890625 225.839844 C 380.988281 216.558594 388.511719 213.578125 397.320312 213.578125 C 406.121094 213.578125 413.828125 216.550781 414.738281 225.839844 C 414.898438 227.421875 414.851562 229.109375 414.851562 229.109375 L 414.851562 230.769531 L 402.339844 230.769531 L 402.339844 227.988281 C 402.351562 228 402.320312 226.808594 402.179688 226.101562 C 401.96875 225 401.019531 222.480469 397.230469 222.480469 C 393.609375 222.480469 392.558594 224.859375 392.289062 226.101562 C 392.140625 226.75 392.078125 227.640625 392.078125 228.441406 L 392.078125 251.140625 C 392.070312 251.769531 392.109375 252.460938 392.210938 253.03125 C 392.410156 254.328125 393.660156 256.601562 397.25 256.601562 Z M 397.25 256.601562 "/>
</g>
</svg>
